<mxfile host="app.diagrams.net" agent="Mozilla/5.0 (Windows NT 10.0; Win64; x64) AppleWebKit/537.36 (KHTML, like Gecko) Chrome/134.0.0.0 Safari/537.36" version="26.1.0">
  <diagram name="Страница — 1" id="1d5mXAaMfCuez_GuHibN">
    <mxGraphModel dx="880" dy="573" grid="1" gridSize="10" guides="1" tooltips="1" connect="1" arrows="1" fold="1" page="1" pageScale="1" pageWidth="827" pageHeight="1169" math="0" shadow="0">
      <root>
        <mxCell id="0" />
        <mxCell id="1" parent="0" />
        <mxCell id="E_hYs0C3CloowEjTSx9Y-2" value="" style="endArrow=classic;html=1;rounded=0;entryX=0.041;entryY=0.367;entryDx=0;entryDy=0;exitX=1;exitY=0.75;exitDx=0;exitDy=0;entryPerimeter=0;" edge="1" parent="1" source="E_hYs0C3CloowEjTSx9Y-8" target="E_hYs0C3CloowEjTSx9Y-3">
          <mxGeometry width="50" height="50" relative="1" as="geometry">
            <mxPoint x="100" y="145" as="sourcePoint" />
            <mxPoint x="200" y="149.5" as="targetPoint" />
          </mxGeometry>
        </mxCell>
        <mxCell id="E_hYs0C3CloowEjTSx9Y-3" value="Центральная Система Управления" style="rounded=1;whiteSpace=wrap;html=1;" vertex="1" parent="1">
          <mxGeometry x="230" y="130" width="120" height="60" as="geometry" />
        </mxCell>
        <mxCell id="E_hYs0C3CloowEjTSx9Y-4" value="Изменения параметров среды" style="rounded=1;whiteSpace=wrap;html=1;" vertex="1" parent="1">
          <mxGeometry x="230" y="300" width="120" height="60" as="geometry" />
        </mxCell>
        <mxCell id="E_hYs0C3CloowEjTSx9Y-5" value="Приводы" style="rounded=1;whiteSpace=wrap;html=1;" vertex="1" parent="1">
          <mxGeometry x="470" y="130" width="120" height="60" as="geometry" />
        </mxCell>
        <mxCell id="E_hYs0C3CloowEjTSx9Y-6" value="" style="endArrow=classic;html=1;rounded=0;exitX=1;exitY=0.25;exitDx=0;exitDy=0;entryX=0;entryY=0.25;entryDx=0;entryDy=0;" edge="1" parent="1" source="E_hYs0C3CloowEjTSx9Y-3" target="E_hYs0C3CloowEjTSx9Y-5">
          <mxGeometry width="50" height="50" relative="1" as="geometry">
            <mxPoint x="390" y="320" as="sourcePoint" />
            <mxPoint x="440" y="270" as="targetPoint" />
          </mxGeometry>
        </mxCell>
        <mxCell id="E_hYs0C3CloowEjTSx9Y-7" value="" style="endArrow=none;dashed=1;html=1;dashPattern=1 3;strokeWidth=2;rounded=0;entryX=0;entryY=0.75;entryDx=0;entryDy=0;exitX=1;exitY=0.75;exitDx=0;exitDy=0;" edge="1" parent="1" source="E_hYs0C3CloowEjTSx9Y-3" target="E_hYs0C3CloowEjTSx9Y-5">
          <mxGeometry width="50" height="50" relative="1" as="geometry">
            <mxPoint x="360" y="170" as="sourcePoint" />
            <mxPoint x="600" y="250" as="targetPoint" />
          </mxGeometry>
        </mxCell>
        <mxCell id="E_hYs0C3CloowEjTSx9Y-8" value="" style="shape=actor;whiteSpace=wrap;html=1;" vertex="1" parent="1">
          <mxGeometry x="50" y="110" width="40" height="60" as="geometry" />
        </mxCell>
        <mxCell id="E_hYs0C3CloowEjTSx9Y-9" value="Оператор" style="text;html=1;align=center;verticalAlign=middle;resizable=0;points=[];autosize=1;strokeColor=none;fillColor=none;" vertex="1" parent="1">
          <mxGeometry x="30" y="170" width="80" height="30" as="geometry" />
        </mxCell>
        <mxCell id="E_hYs0C3CloowEjTSx9Y-10" value="" style="endArrow=classic;html=1;rounded=0;entryX=1;entryY=0.75;entryDx=0;entryDy=0;" edge="1" parent="1" target="E_hYs0C3CloowEjTSx9Y-3">
          <mxGeometry width="50" height="50" relative="1" as="geometry">
            <mxPoint x="350" y="175" as="sourcePoint" />
            <mxPoint x="440" y="270" as="targetPoint" />
          </mxGeometry>
        </mxCell>
        <mxCell id="E_hYs0C3CloowEjTSx9Y-11" value="" style="endArrow=classic;html=1;rounded=0;entryX=1;entryY=0.75;entryDx=0;entryDy=0;" edge="1" parent="1" target="E_hYs0C3CloowEjTSx9Y-3">
          <mxGeometry width="50" height="50" relative="1" as="geometry">
            <mxPoint x="360" y="175" as="sourcePoint" />
            <mxPoint x="374" y="170" as="targetPoint" />
          </mxGeometry>
        </mxCell>
        <mxCell id="E_hYs0C3CloowEjTSx9Y-12" value="Информация о задачах" style="text;html=1;align=center;verticalAlign=middle;whiteSpace=wrap;rounded=0;" vertex="1" parent="1">
          <mxGeometry x="120" y="120" width="60" height="30" as="geometry" />
        </mxCell>
        <mxCell id="E_hYs0C3CloowEjTSx9Y-13" value="" style="endArrow=classic;html=1;rounded=0;exitX=0.188;exitY=0.998;exitDx=0;exitDy=0;exitPerimeter=0;entryX=0.197;entryY=0.013;entryDx=0;entryDy=0;entryPerimeter=0;" edge="1" parent="1" source="E_hYs0C3CloowEjTSx9Y-3" target="E_hYs0C3CloowEjTSx9Y-4">
          <mxGeometry width="50" height="50" relative="1" as="geometry">
            <mxPoint x="390" y="320" as="sourcePoint" />
            <mxPoint x="440" y="270" as="targetPoint" />
          </mxGeometry>
        </mxCell>
        <mxCell id="E_hYs0C3CloowEjTSx9Y-14" value="" style="endArrow=classic;html=1;rounded=0;entryX=0.75;entryY=1;entryDx=0;entryDy=0;" edge="1" parent="1" target="E_hYs0C3CloowEjTSx9Y-3">
          <mxGeometry width="50" height="50" relative="1" as="geometry">
            <mxPoint x="320" y="200" as="sourcePoint" />
            <mxPoint x="440" y="270" as="targetPoint" />
          </mxGeometry>
        </mxCell>
        <mxCell id="E_hYs0C3CloowEjTSx9Y-15" value="" style="endArrow=none;dashed=1;html=1;dashPattern=1 3;strokeWidth=2;rounded=0;exitX=0.75;exitY=0;exitDx=0;exitDy=0;entryX=0.75;entryY=1;entryDx=0;entryDy=0;" edge="1" parent="1" source="E_hYs0C3CloowEjTSx9Y-4" target="E_hYs0C3CloowEjTSx9Y-3">
          <mxGeometry width="50" height="50" relative="1" as="geometry">
            <mxPoint x="390" y="320" as="sourcePoint" />
            <mxPoint x="440" y="270" as="targetPoint" />
          </mxGeometry>
        </mxCell>
        <mxCell id="E_hYs0C3CloowEjTSx9Y-16" value="Команды управления согласно задачам" style="text;html=1;align=center;verticalAlign=middle;whiteSpace=wrap;rounded=0;" vertex="1" parent="1">
          <mxGeometry x="180" y="230" width="60" height="30" as="geometry" />
        </mxCell>
        <mxCell id="E_hYs0C3CloowEjTSx9Y-17" value="Телеметрия" style="text;html=1;align=center;verticalAlign=middle;whiteSpace=wrap;rounded=0;" vertex="1" parent="1">
          <mxGeometry x="330" y="230" width="60" height="30" as="geometry" />
        </mxCell>
        <mxCell id="E_hYs0C3CloowEjTSx9Y-18" value="Команды управления" style="text;html=1;align=center;verticalAlign=middle;whiteSpace=wrap;rounded=0;" vertex="1" parent="1">
          <mxGeometry x="383.5" y="110" width="60" height="30" as="geometry" />
        </mxCell>
        <mxCell id="E_hYs0C3CloowEjTSx9Y-19" value="Телеметрия" style="text;html=1;align=center;verticalAlign=middle;whiteSpace=wrap;rounded=0;" vertex="1" parent="1">
          <mxGeometry x="384" y="190" width="60" height="30" as="geometry" />
        </mxCell>
      </root>
    </mxGraphModel>
  </diagram>
</mxfile>
